HIERARCHY
ROOT hips
{
	OFFSET 0.000000 104.274902 0.000000
	CHANNELS 6 Xposition Yposition Zposition Xrotation Yrotation Zrotation
	JOINT spine
	{
		OFFSET 0.000000 10.181549 0.131524
		CHANNELS 6 Xposition Yposition Zposition Xrotation Yrotation Zrotation
		JOINT chest
		{
			OFFSET 0.000000 9.893990 -1.470706
			CHANNELS 3 Xrotation Yrotation Zrotation
			JOINT upperChest
			{
				OFFSET 0.000000 9.220787 -1.370637
				CHANNELS 3 Xrotation Yrotation Zrotation
				JOINT neck
				{
					OFFSET 0.000000 16.740372 -2.049022
					CHANNELS 6 Xposition Yposition Zposition Xrotation Yrotation Zrotation
					JOINT head
					{
						OFFSET 0.000000 9.617859 1.684976
						CHANNELS 6 Xposition Yposition Zposition Xrotation Yrotation Zrotation
						JOINT headEnd
						{
							OFFSET 0.000000 22.037384 7.501072
							CHANNELS 6 Xposition Yposition Zposition Xrotation Yrotation Zrotation
							End Site
							{
								OFFSET 0.000000 23.106567 -2.828246
							}
						}
					}
				}
				JOINT rightShoulder
				{
					OFFSET -4.570000 11.014877 -2.160840
					CHANNELS 6 Xposition Yposition Zposition Xrotation Yrotation Zrotation
					JOINT rightUpperArm
					{
						OFFSET -10.592867 -0.524796 -2.232105
						CHANNELS 3 Xrotation Yrotation Zrotation
						JOINT rightLowerArm
						{
							OFFSET -27.841497 0.000000 -0.000002
							CHANNELS 3 Xrotation Yrotation Zrotation
							JOINT rightHand
							{
								OFFSET -28.328812 0.000000 -0.000001
								CHANNELS 3 Xrotation Yrotation Zrotation
								JOINT rightThumbProximal
								{
									OFFSET -2.464798 -1.573990 2.681911
									CHANNELS 6 Xposition Yposition Zposition Xrotation Yrotation Zrotation
									JOINT rightThumbIntermediate
									{
										OFFSET -3.244781 -1.873383 1.873376
										CHANNELS 3 Xrotation Yrotation Zrotation
										JOINT rightThumbDistal
										{
											OFFSET -2.646263 -1.527817 1.527818
											CHANNELS 6 Xposition Yposition Zposition Xrotation Yrotation Zrotation
											JOINT rightHandThumb4
											{
												OFFSET -1.994591 -1.151581 1.151575
												CHANNELS 6 Xposition Yposition Zposition Xrotation Yrotation Zrotation
												End Site
												{
													OFFSET -1.860176 -1.142715 1.365483
												}
											}
										}
									}
								}
								JOINT rightIndexProximal
								{
									OFFSET -9.108299 -0.517883 2.259803
									CHANNELS 6 Xposition Yposition Zposition Xrotation Yrotation Zrotation
									JOINT rightIndexIntermediate
									{
										OFFSET -3.699997 0.000000 0.000000
										CHANNELS 3 Xrotation Yrotation Zrotation
										JOINT rightIndexDistal
										{
											OFFSET -2.850006 0.000000 0.000000
											CHANNELS 3 Xrotation Yrotation Zrotation
											JOINT rightHandIndex4
											{
												OFFSET -2.772194 0.000000 0.000000
												CHANNELS 3 Xrotation Yrotation Zrotation
												End Site
												{
													OFFSET -2.772202 0.000000 -0.000484
												}
											}
										}
									}
								}
								JOINT rightMiddleProximal
								{
									OFFSET -9.532501 0.000000 -0.000000
									CHANNELS 6 Xposition Yposition Zposition Xrotation Yrotation Zrotation
									JOINT rightMiddleIntermediate
									{
										OFFSET -3.699997 0.000000 0.000000
										CHANNELS 3 Xrotation Yrotation Zrotation
										JOINT rightMiddleDistal
										{
											OFFSET -2.949997 0.000000 0.000000
											CHANNELS 3 Xrotation Yrotation Zrotation
											JOINT rightHandMiddle4
											{
												OFFSET -2.946594 0.000000 0.000000
												CHANNELS 3 Xrotation Yrotation Zrotation
												End Site
												{
													OFFSET -2.946602 0.000000 -0.000982
												}
											}
										}
									}
								}
								JOINT rightRingProximal
								{
									OFFSET -9.103600 -0.043106 -1.865100
									CHANNELS 6 Xposition Yposition Zposition Xrotation Yrotation Zrotation
									JOINT rightRingIntermediate
									{
										OFFSET -3.379303 0.000000 0.000000
										CHANNELS 3 Xrotation Yrotation Zrotation
										JOINT rightRingDistal
										{
											OFFSET -2.889694 0.000000 0.000000
											CHANNELS 3 Xrotation Yrotation Zrotation
											JOINT rightHandRing4
											{
												OFFSET -2.638802 0.000000 0.000000
												CHANNELS 3 Xrotation Yrotation Zrotation
												End Site
												{
													OFFSET -2.638802 0.000000 0.004218
												}
											}
										}
									}
								}
								JOINT rightLittleProximal
								{
									OFFSET -8.076698 -0.486725 -3.806299
									CHANNELS 6 Xposition Yposition Zposition Xrotation Yrotation Zrotation
									JOINT rightLittleIntermediate
									{
										OFFSET -3.600006 0.000000 0.000000
										CHANNELS 3 Xrotation Yrotation Zrotation
										JOINT rightLittleDistal
										{
											OFFSET -2.099998 0.000000 0.000000
											CHANNELS 3 Xrotation Yrotation Zrotation
											JOINT rightHandPinky4
											{
												OFFSET -2.115791 0.000000 0.000000
												CHANNELS 3 Xrotation Yrotation Zrotation
												End Site
												{
													OFFSET -2.115799 0.000000 0.000174
												}
											}
										}
									}
								}
							}
						}
					}
				}
				JOINT leftShoulder
				{
					OFFSET 4.570400 11.014679 -2.160816
					CHANNELS 6 Xposition Yposition Zposition Xrotation Yrotation Zrotation
					JOINT leftUpperArm
					{
						OFFSET 10.592373 -0.524597 -2.232116
						CHANNELS 3 Xrotation Yrotation Zrotation
						JOINT leftLowerArm
						{
							OFFSET 27.841488 0.000000 0.000001
							CHANNELS 3 Xrotation Yrotation Zrotation
							JOINT leftHand
							{
								OFFSET 28.328808 0.000000 -0.000000
								CHANNELS 3 Xrotation Yrotation Zrotation
								JOINT leftThumbProximal
								{
									OFFSET 2.466103 -1.576202 2.681698
									CHANNELS 6 Xposition Yposition Zposition Xrotation Yrotation Zrotation
									JOINT leftThumbIntermediate
									{
										OFFSET 3.243317 -1.872528 1.872530
										CHANNELS 3 Xrotation Yrotation Zrotation
										JOINT leftThumbDistal
										{
											OFFSET 2.647881 -1.528763 1.528754
											CHANNELS 6 Xposition Yposition Zposition Xrotation Yrotation Zrotation
											JOINT leftHandThumb4
											{
												OFFSET 1.998924 -1.154083 1.154080
												CHANNELS 6 Xposition Yposition Zposition Xrotation Yrotation Zrotation
												End Site
												{
													OFFSET 1.884041 -1.149155 1.337651
												}
											}
										}
									}
								}
								JOINT leftIndexProximal
								{
									OFFSET 9.109299 -0.518005 2.259900
									CHANNELS 6 Xposition Yposition Zposition Xrotation Yrotation Zrotation
									JOINT leftIndexIntermediate
									{
										OFFSET 3.699997 0.000000 0.000000
										CHANNELS 3 Xrotation Yrotation Zrotation
										JOINT leftIndexDistal
										{
											OFFSET 2.850006 0.000000 0.000000
											CHANNELS 3 Xrotation Yrotation Zrotation
											JOINT leftHandIndex4
											{
												OFFSET 2.774895 0.000000 0.000000
												CHANNELS 3 Xrotation Yrotation Zrotation
												End Site
												{
													OFFSET 2.774902 0.000000 -0.000072
												}
											}
										}
									}
								}
								JOINT leftMiddleProximal
								{
									OFFSET 9.533401 0.000000 0.000000
									CHANNELS 6 Xposition Yposition Zposition Xrotation Yrotation Zrotation
									JOINT leftMiddleIntermediate
									{
										OFFSET 3.699997 0.000000 0.000000
										CHANNELS 3 Xrotation Yrotation Zrotation
										JOINT leftMiddleDistal
										{
											OFFSET 2.949997 0.000000 0.000000
											CHANNELS 3 Xrotation Yrotation Zrotation
											JOINT leftHandMiddle4
											{
												OFFSET 2.952896 0.000000 0.000000
												CHANNELS 3 Xrotation Yrotation Zrotation
												End Site
												{
													OFFSET 2.952904 0.000000 0.000165
												}
											}
										}
									}
								}
								JOINT leftRingProximal
								{
									OFFSET 9.104500 -0.042999 -1.865101
									CHANNELS 6 Xposition Yposition Zposition Xrotation Yrotation Zrotation
									JOINT leftRingIntermediate
									{
										OFFSET 3.149994 0.000000 0.000000
										CHANNELS 3 Xrotation Yrotation Zrotation
										JOINT leftRingDistal
										{
											OFFSET 2.950005 0.000000 0.000000
											CHANNELS 3 Xrotation Yrotation Zrotation
											JOINT leftHandRing4
											{
												OFFSET 2.644302 0.000000 0.000000
												CHANNELS 3 Xrotation Yrotation Zrotation
												End Site
												{
													OFFSET 2.644302 0.000000 0.000083
												}
											}
										}
									}
								}
								JOINT leftLittleProximal
								{
									OFFSET 8.077805 -0.486893 -3.806302
									CHANNELS 6 Xposition Yposition Zposition Xrotation Yrotation Zrotation
									JOINT leftLittleIntermediate
									{
										OFFSET 3.600006 0.000000 0.000000
										CHANNELS 3 Xrotation Yrotation Zrotation
										JOINT leftLittleDistal
										{
											OFFSET 2.099998 0.000000 0.000000
											CHANNELS 3 Xrotation Yrotation Zrotation
											JOINT leftHandPinky4
											{
												OFFSET 2.125496 0.000000 0.000000
												CHANNELS 3 Xrotation Yrotation Zrotation
												End Site
												{
													OFFSET 2.125504 0.000000 -0.001254
												}
											}
										}
									}
								}
							}
						}
					}
				}
			}
		}
	}
	JOINT rightUpperLeg
	{
		OFFSET -8.207800 -6.751701 -1.599544
		CHANNELS 6 Xposition Yposition Zposition Xrotation Yrotation Zrotation
		JOINT rightLowerLeg
		{
			OFFSET 0.000004 -44.370152 0.345934
			CHANNELS 3 Xrotation Yrotation Zrotation
			JOINT rightFoot
			{
				OFFSET 0.000004 -44.423664 -3.043535
				CHANNELS 3 Xrotation Yrotation Zrotation
				JOINT rightToes
				{
					OFFSET 0.000001 -8.728691 10.710592
					CHANNELS 3 Xrotation Yrotation Zrotation
					JOINT rightToesEnd
					{
						OFFSET 0.000000 -0.000665 9.278101
						CHANNELS 3 Xrotation Yrotation Zrotation
						End Site
						{
							OFFSET 0.000000 -0.000665 9.278103
						}
					}
				}
			}
		}
	}
	JOINT leftUpperLeg
	{
		OFFSET 8.207800 -6.751701 -1.599544
		CHANNELS 6 Xposition Yposition Zposition Xrotation Yrotation Zrotation
		JOINT leftLowerLeg
		{
			OFFSET 0.000004 -44.370037 0.346940
			CHANNELS 3 Xrotation Yrotation Zrotation
			JOINT leftFoot
			{
				OFFSET 0.000004 -44.423611 -3.044388
				CHANNELS 3 Xrotation Yrotation Zrotation
				JOINT leftToes
				{
					OFFSET 0.000001 -8.728690 10.710592
					CHANNELS 3 Xrotation Yrotation Zrotation
					JOINT leftToesEnd
					{
						OFFSET 0.000000 -0.000680 9.278101
						CHANNELS 3 Xrotation Yrotation Zrotation
						End Site
						{
							OFFSET 0.000000 -0.000680 9.278101
						}
					}
				}
			}
		}
	}
}
MOTION
Frames: 4
Frame Time: 0.033333
0.478562 101.630859 1.555261 -0.893322 1.577733 -5.359113 0.000001 10.181546 0.131524 1.298040 -1.197538 3.016797 0.728744 0.264195 5.944686 0.710788 0.781492 5.852000 0.000000 16.740379 -2.049018 1.045308 -0.304693 -2.163987 -0.000000 9.617837 1.684972 1.584930 0.544179 -8.140495 -0.000000 22.037354 7.501074 -0.000000 0.000000 -0.000000 -4.570000 11.014862 -2.160838 4.508139 3.324373 5.471571 -1.219698 0.655839 67.345412 -0.000008 17.736791 0.000007 -11.193106 -9.123283 10.139272 -2.464791 -1.573985 2.681902 18.491284 0.461458 -10.916085 1.284028 -32.757608 3.089012 -2.646267 -1.527802 1.527818 2.008718 -8.430473 1.114708 -1.994586 -1.151583 1.151584 -0.000000 -0.000002 0.000001 -9.108300 -0.517879 2.259802 0.339561 -4.671349 7.844292 0.387028 -2.823577 20.566237 -0.193127 -0.216344 13.843927 0.000000 -0.000000 -0.000000 -9.532495 0.000018 -0.000002 0.912578 -8.769259 15.831754 0.919075 -3.991125 33.400404 0.216472 -1.688830 15.898058 0.000000 0.000000 -0.000001 -9.103602 -0.043106 -1.865103 2.555807 -11.673024 26.909202 1.710652 -3.886779 40.215450 -0.157952 0.035281 17.815346 0.000001 0.000000 -0.000000 -8.076690 -0.486728 -3.806298 5.576067 -16.029168 36.940641 1.378676 -4.077636 45.645615 -0.727739 -0.247568 22.122750 -0.000000 -0.000001 -0.000001 4.570402 11.014675 -2.160813 3.582352 -13.764055 -5.044502 4.032788 3.514260 -83.678348 -0.000012 -14.506750 0.000013 -27.592626 3.698772 -9.416204 2.466096 -1.576219 2.681699 18.491375 -0.461340 10.916048 1.284028 32.757608 -3.089011 2.647878 -1.528768 1.528745 2.117133 9.311168 -0.358609 1.998917 -1.154088 1.154068 0.000000 0.000001 -0.000000 9.109293 -0.518022 2.259900 0.339569 4.671363 -7.844254 0.387005 2.823614 -20.566232 0.034611 0.816849 -10.169816 -0.000001 0.000000 -0.000003 9.533410 0.000002 0.000000 0.912556 8.769294 -15.831721 0.919045 3.991192 -33.400393 0.170560 1.488910 -12.264428 -0.000000 -0.000002 0.000002 9.104502 -0.042987 -1.865100 2.555792 11.673080 -26.909187 1.710616 3.886848 -40.215447 0.544833 1.835109 -19.344146 -0.000001 -0.000001 0.000000 8.077798 -0.486888 -3.806302 5.576035 16.029243 -36.940603 1.378651 4.077724 -45.645608 0.486567 2.853423 -20.524725 0.000001 0.000001 -0.000000 -8.207800 -6.751713 -1.599544 -1.603518 -4.966765 10.554078 12.445312 -5.083589 3.268287 -9.845114 1.009963 -7.756585 -0.548660 -0.000003 0.000000 -0.000000 0.000000 0.000000 8.207801 -6.751709 -1.599544 -19.556204 10.812983 15.936474 22.044972 9.498150 2.339192 -1.490768 3.351034 -8.781930 -0.441972 0.000012 0.000002 0.000000 -0.000000 0.000000 
0.535434 101.625366 1.567748 -0.993386 1.782244 -5.338921 -0.000001 10.181550 0.131524 1.362492 -1.119071 3.014498 0.736468 0.289551 5.943241 0.718716 0.806871 5.850358 -0.000002 16.740368 -2.049019 1.095161 -0.316756 -2.209755 -0.000004 9.617843 1.684974 1.937585 0.451522 -8.208072 0.000000 22.037354 7.501074 -0.000000 0.000000 -0.000000 -4.570002 11.014884 -2.160840 4.489131 3.467099 5.538965 -2.818411 -1.269710 67.264932 -0.000008 17.079766 0.000020 -9.666616 -9.372108 10.334433 -2.464791 -1.573998 2.681907 18.271398 0.410828 -10.945742 1.263197 -32.755388 3.083742 -2.646275 -1.527819 1.527812 2.050689 -8.467256 1.114216 -1.994583 -1.151572 1.151572 0.000003 -0.000002 0.000003 -9.108294 -0.517872 2.259803 0.334618 -4.635678 7.847532 0.387036 -2.823578 20.566198 -0.193129 -0.216340 13.843935 0.000000 -0.000000 0.000002 -9.532495 -0.000002 -0.000001 0.906134 -8.754571 15.759058 0.919776 -3.992242 33.413723 0.214557 -1.682144 15.828607 0.000000 0.000000 -0.000002 -9.103598 -0.043102 -1.865100 2.556438 -11.695355 26.792976 1.709784 -3.885937 40.203457 -0.158431 0.040623 17.763203 -0.000001 -0.000000 -0.000000 -8.076693 -0.486725 -3.806297 5.582349 -16.080547 36.779636 1.375003 -4.073375 45.589573 -0.727215 -0.233746 22.000787 0.000001 -0.000000 -0.000000 4.570397 11.014653 -2.160815 3.580330 -13.784701 -5.038671 3.892629 3.424270 -83.615763 0.000011 -14.359593 0.000000 -27.861382 3.330390 -9.647303 2.466094 -1.576210 2.681695 18.504270 -0.390777 10.937821 1.311401 32.827426 -3.089168 2.647890 -1.528737 1.528750 2.134401 9.382608 -0.346476 1.998917 -1.154092 1.154079 -0.000001 -0.000001 -0.000000 9.109299 -0.518010 2.259900 0.343813 4.701679 -8.146665 0.398330 2.853503 -20.882977 0.037598 0.837669 -10.377170 0.000000 -0.000001 -0.000003 9.533401 -0.000003 0.000000 0.930120 8.796047 -16.136202 0.936064 4.017923 -33.718284 0.175591 1.509011 -12.471873 -0.000000 -0.000000 -0.000001 9.104506 -0.042995 -1.865103 2.589190 11.691242 -27.216508 1.733512 3.908931 -40.534659 0.553552 1.853771 -19.551770 -0.000000 0.000001 0.000000 8.077791 -0.486891 -3.806306 5.595071 16.053460 -37.247931 1.399577 4.101805 -45.963328 0.495165 2.872468 -20.732481 0.000001 0.000000 -0.000000 -8.207797 -6.751719 -1.599544 -1.536838 -5.054275 10.513995 12.562815 -5.049097 3.252050 -9.938000 0.864002 -7.719928 -0.547081 -0.000003 0.000000 -0.000000 -0.000001 0.000000 8.207797 -6.751706 -1.599541 -19.507123 10.818932 15.849056 22.114481 9.334978 2.389297 -1.547546 3.338720 -8.745927 -0.397659 0.000012 -0.000002 0.000000 -0.000003 0.000000 
0.604472 101.620918 1.580705 -1.106085 2.028146 -5.314174 0.000001 10.181552 0.131524 1.424760 -1.001815 3.023873 0.744401 0.327594 5.945253 0.726909 0.844980 5.852002 -0.000003 16.740341 -2.049019 1.136179 -0.334135 -2.250470 -0.000000 9.617871 1.684974 2.288737 0.351124 -8.379388 0.000000 22.037384 7.501072 -0.000000 -0.000000 -0.000000 -4.570003 11.014862 -2.160839 4.468563 3.587687 5.530296 -5.324394 -3.295168 66.917214 -0.000002 15.265913 0.000013 -5.229682 -10.906673 11.108482 -2.464795 -1.574005 2.681906 17.786861 0.301514 -11.011762 1.217367 -32.750504 3.072172 -2.646274 -1.527799 1.527816 2.143100 -8.548289 1.113402 -1.994613 -1.151586 1.151587 -0.000000 -0.000004 -0.000004 -9.108286 -0.517884 2.259802 0.323763 -4.557110 7.854696 0.387021 -2.823575 20.566212 -0.193121 -0.216341 13.843947 0.000000 0.000000 0.000002 -9.532507 0.000011 -0.000002 0.892013 -8.722152 15.598888 0.921354 -3.994714 33.443051 0.210384 -1.667435 15.675638 -0.000002 -0.000000 -0.000001 -9.103601 -0.043107 -1.865104 2.557383 -11.744548 26.536854 1.707893 -3.884111 40.177017 -0.159459 0.052364 17.648391 -0.000000 -0.000000 -0.000000 -8.076698 -0.486725 -3.806300 5.594924 -16.193810 36.424542 1.366924 -4.063976 45.466107 -0.725942 -0.203324 21.732178 -0.000000 0.000002 0.000000 4.570400 11.014668 -2.160814 3.578100 -13.820696 -4.992889 3.755602 3.537263 -83.589112 0.000000 -14.213143 0.000004 -28.729155 2.575852 -10.026657 2.466100 -1.576210 2.681697 18.531075 -0.243870 10.983055 1.368448 32.972704 -3.089666 2.647887 -1.528757 1.528753 2.170255 9.531310 -0.321180 1.998917 -1.154092 1.154076 0.000001 -0.000001 -0.000000 9.109291 -0.518010 2.259900 0.353219 4.764739 -8.776161 0.422421 2.915507 -21.542415 0.044079 0.880970 -10.808803 0.000000 0.000001 -0.000001 9.533390 0.000021 -0.000002 0.967066 8.851166 -16.770029 0.972032 4.073258 -34.380020 0.186288 1.550807 -12.903760 0.000000 -0.000000 0.000002 9.104506 -0.042999 -1.865103 2.658803 11.727927 -27.856329 1.781615 3.954494 -41.199138 0.571890 1.892479 -19.983928 -0.000000 -0.000000 0.000000 8.077796 -0.486889 -3.806298 5.635134 16.103477 -37.887865 1.443581 4.151549 -46.624726 0.513294 2.912014 -21.164963 -0.000000 0.000001 0.000001 -8.207798 -6.751713 -1.599544 -1.462868 -5.128681 10.475675 12.683376 -5.016237 3.222897 -10.037604 0.663535 -7.674611 -0.537197 0.000001 -0.000001 0.000000 -0.000001 0.000000 8.207803 -6.751713 -1.599547 -19.446049 10.820055 15.734736 22.178767 9.135782 2.459200 -1.603494 3.336531 -8.706025 -0.362571 -0.000010 0.000001 0.000000 -0.000002 0.000000 
0.682472 101.618340 1.587023 -1.224379 2.285671 -5.294228 -0.000001 10.181537 0.131524 1.477868 -0.822873 3.044980 0.754924 0.386012 5.950965 0.737840 0.903436 5.857097 -0.000001 16.740372 -2.049017 1.149783 -0.370284 -2.270227 -0.000001 9.617869 1.684970 2.590439 0.210054 -8.657970 -0.000000 22.037384 7.501070 -0.000000 -0.000000 0.000000 -4.570000 11.014869 -2.160837 4.446937 3.700979 5.484235 -8.933671 -5.123492 66.209743 0.000000 12.108850 0.000014 1.636082 -14.383788 12.082962 -2.464794 -1.574003 2.681911 16.985321 0.126817 -11.122277 1.141659 -32.742414 3.053066 -2.646263 -1.527808 1.527817 2.295819 -8.682278 1.112594 -1.994598 -1.151580 1.151575 -0.000000 -0.000006 -0.000000 -9.108299 -0.517876 2.259803 0.305790 -4.427294 7.866579 0.387024 -2.823576 20.566208 -0.193123 -0.216344 13.843926 0.000001 0.000000 0.000006 -9.532490 0.000017 -0.000001 0.869031 -8.668443 15.334396 0.923938 -3.998794 33.491488 0.203564 -1.643087 15.422900 0.000000 0.000000 -0.000001 -9.103598 -0.043104 -1.865101 2.557760 -11.825950 26.113440 1.704779 -3.881080 40.133307 -0.161108 0.071798 17.458665 -0.000000 -0.000000 0.000000 -8.076693 -0.486724 -3.806299 5.612156 -16.381485 35.836667 1.353598 -4.048416 45.262151 -0.723510 -0.153082 21.288373 -0.000003 -0.000001 -0.000001 4.570401 11.014683 -2.160812 3.576141 -13.863636 -4.921741 3.630061 3.776609 -83.559851 0.000014 -14.052417 -0.000006 -29.970559 1.572773 -10.516580 2.466083 -1.576193 2.681699 18.566981 -0.045891 11.043936 1.445517 33.168509 -3.090630 2.647873 -1.528737 1.528742 2.218503 9.731748 -0.287279 1.998905 -1.154094 1.154069 -0.000000 0.000001 0.000001 9.109288 -0.518020 2.259900 0.366994 4.849535 -9.624601 0.456018 2.998611 -22.431123 0.053319 0.939247 -11.390477 -0.000001 -0.000000 0.000001 9.533394 -0.000002 0.000000 1.017744 8.924513 -17.624437 1.021478 4.147161 -35.271893 0.201206 1.607008 -13.485794 -0.000000 0.000000 0.000003 9.104502 -0.042994 -1.865102 2.752962 11.775559 -28.718770 1.847249 4.014999 -42.094709 0.597090 1.944462 -20.566348 -0.000000 -0.000001 -0.000000 8.077804 -0.486890 -3.806303 5.690049 16.170224 -38.750569 1.503786 4.217786 -47.516120 0.538194 2.965073 -21.747807 0.000000 0.000001 -0.000001 -8.207800 -6.751719 -1.599544 -1.385116 -5.184478 10.442747 12.793866 -5.030868 3.189281 -10.127626 0.478666 -7.616209 -0.522567 0.000002 0.000000 0.000000 0.000000 -0.000000 8.207801 -6.751704 -1.599542 -19.384140 10.818682 15.613816 22.241169 8.917999 2.538788 -1.656246 3.346224 -8.661660 -0.338817 0.000003 0.000004 0.000000 -0.000000 0.000000 
